<svg id="Layer_1" data-name="Layer 1" xmlns="http://www.w3.org/2000/svg" viewBox="0 0 176.03 170.5"><defs><style>.cls-1{fill:red;}</style></defs><title>the logo attached</title><path d="M4531.35,8768c0-44.95,37.55-81.39,83.86-81.39,39.88,0,73.24,27,81.74,63.22-3.1-44.5-41.25-79.67-87.9-79.67-48.67,0-88.12,38.29-88.12,85.52a83.27,83.27,0,0,0,2.19,19c9.05,38.18,41,59,53,66-9.06-5.48-35.22-23-42.8-55A81.5,81.5,0,0,1,4531.35,8768Z" transform="translate(-4520.93 -8670.12)"/><path class="cls-1" d="M4604,8721a71.53,71.53,0,0,1,82.19,42.87,71.51,71.51,0,1,0-137.65,31.4A71.54,71.54,0,0,1,4604,8721Z" transform="translate(-4520.93 -8670.12)"/></svg>