<svg id="Layer_1" data-name="Layer 1" xmlns="http://www.w3.org/2000/svg" viewBox="0 0 111.02 111.02"><defs><style>.cls-1{fill:#fff;}.cls-2{fill:#ed1c24;}</style></defs><title>NEW LOGOS</title><circle class="cls-1" cx="55.51" cy="55.51" r="55.51"/><path class="cls-2" d="M4585.42,8703.85v-37.69l-9.28,34.79c-.6,2.26-1.09,3.91-1.47,5a6.07,6.07,0,0,1-2.12,2.88,7.1,7.1,0,0,1-7.73.47,7,7,0,0,1-2.21-2.14,11.94,11.94,0,0,1-1.24-2.89c-.3-1-.61-2.15-.93-3.29l-9.27-34.79v37.69a6.57,6.57,0,0,1-1.48,4.69,4.59,4.59,0,0,1-1,.8,5.66,5.66,0,0,1-5.67.11,5.27,5.27,0,0,1-1.15-.89,6.53,6.53,0,0,1-1.5-4.71v-43.2q0-3.57,2-4.82a9.92,9.92,0,0,1,5.33-1.25h3.63a14.63,14.63,0,0,1,4.75.56,3.93,3.93,0,0,1,2.19,2,29,29,0,0,1,1.62,4.73l8.4,29.9,8.41-29.9a30.25,30.25,0,0,1,1.61-4.73,4,4,0,0,1,2.19-2,14.74,14.74,0,0,1,4.76-.56h.18a55.52,55.52,0,1,0,1.12,53.49A7,7,0,0,1,4585.42,8703.85Zm-51.91,6.82h-30q-3.6,0-5.18-1.67c-1.06-1.1-1.58-2.89-1.58-5.37v-42.57a9.75,9.75,0,0,1,.71-4,4.41,4.41,0,0,1,2.21-2.27,8.89,8.89,0,0,1,3.84-.72h29.15v8.85h-24.87v13.9h22.9v8.66h-22.9v16.11h25.72Z" transform="translate(-4481.87 -8626.83)"/></svg>