<svg id="Layer_1" data-name="Layer 1" xmlns="http://www.w3.org/2000/svg" viewBox="0 0 382.78 235.89"><defs><style>.cls-1{fill:#fbb03b;}.cls-2{font-size:42.75px;font-family:GillSansMT-Condensed, Gill Sans MT Condensed;}.cls-3{letter-spacing:0.02em;}</style></defs><title>new logo everymina</title><path d="M4531.35,8768c0-44.95,37.55-81.39,83.86-81.39,39.88,0,73.24,27,81.74,63.22-3.1-44.5-41.25-79.67-87.9-79.67-48.67,0-88.12,38.29-88.12,85.52a83.27,83.27,0,0,0,2.19,19c9.05,38.18,41,59,53,66-9.06-5.48-35.22-23-42.8-55A81.5,81.5,0,0,1,4531.35,8768Z" transform="translate(-4410.45 -8670.12)"/><path class="cls-1" d="M4604,8721a71.53,71.53,0,0,1,82.19,42.87,71.51,71.51,0,1,0-137.65,31.4A71.54,71.54,0,0,1,4604,8721Z" transform="translate(-4410.45 -8670.12)"/><text class="cls-2" transform="translate(0 200.19) scale(1.95 1)">eve<tspan class="cls-3" x="39.66" y="0">r</tspan><tspan x="51.2" y="0">ymina news</tspan></text><path class="cls-1" d="M4470.63,8890.1h7.14v2h-7.14Zm2.53,10.52a2.72,2.72,0,0,1-.89-2.22v-11.56h3.11v11.58a.82.82,0,0,0,.23.64,1,1,0,0,0,.67.22h1.49v2.1H4476A4.25,4.25,0,0,1,4473.16,8900.62Z" transform="translate(-4410.45 -8670.12)"/><path class="cls-1" d="M4482.05,8885.6h3.11v15.72h-3.11Zm9.61,8.92a2.17,2.17,0,0,0-.87-1.84,4,4,0,0,0-2.44-.65,4.16,4.16,0,0,0-2.36.57,1.81,1.81,0,0,0-.83,1.59l-.32-2.17a5,5,0,0,1,1.91-1.54,6.23,6.23,0,0,1,2.62-.54,6,6,0,0,1,4,1.19,4.2,4.2,0,0,1,1.41,3.38v6.81h-3.11Z" transform="translate(-4410.45 -8670.12)"/><path class="cls-1" d="M4503.79,8901.48l-1.56-.58a5.07,5.07,0,0,1-2.37-1.71,4.59,4.59,0,0,1-.81-2.73v-1.27a5,5,0,0,1,.78-2.84,4.88,4.88,0,0,1,2.28-1.8,9.48,9.48,0,0,1,3.6-.61,7.45,7.45,0,0,1,3.39.7,4.89,4.89,0,0,1,2.14,2,6.4,6.4,0,0,1,.74,3.19v.74H4501.3v-1.78H4509a3.12,3.12,0,0,0-1-2.13,3.33,3.33,0,0,0-2.31-.76,4.11,4.11,0,0,0-2.74.82,2.89,2.89,0,0,0-1,2.32v1.43a2.48,2.48,0,0,0,1,2.14,5,5,0,0,0,2.95.75,6.66,6.66,0,0,0,1.87-.27,6.08,6.08,0,0,0,1.67-.76l2,1.45a9.72,9.72,0,0,1-2.64,1.24,10.26,10.26,0,0,1-2.94.43Z" transform="translate(-4410.45 -8670.12)"/><path class="cls-1" d="M4524.65,8885.6h3.11v2.21h-3.11Zm0,4.5h3.11v11.22h-3.11Z" transform="translate(-4410.45 -8670.12)"/><path class="cls-1" d="M4532.49,8890.1h3.12v11.22h-3.12Zm9.62,4.42a2.17,2.17,0,0,0-.87-1.84,4.06,4.06,0,0,0-2.45-.65,4.12,4.12,0,0,0-2.35.58,1.83,1.83,0,0,0-.83,1.61l-.32-2.16a4.75,4.75,0,0,1,1.91-1.57,7,7,0,0,1,6.61.64,4.2,4.2,0,0,1,1.41,3.38v6.81h-3.11Z" transform="translate(-4410.45 -8670.12)"/><path class="cls-1" d="M4548.73,8890.1h7.92V8892h-7.92Zm1.68-1.52a2.64,2.64,0,0,1,1-2.24,4.91,4.91,0,0,1,3-.74h2.29v2.1h-2.23a.87.87,0,0,0-.67.24.85.85,0,0,0-.23.61v12.77h-3.11Z" transform="translate(-4410.45 -8670.12)"/><path class="cls-1" d="M4561.94,8900.91a4.75,4.75,0,0,1-2.23-1.67,4.43,4.43,0,0,1-.77-2.64v-1.83a4.33,4.33,0,0,1,.77-2.61,4.72,4.72,0,0,1,2.23-1.65,11.18,11.18,0,0,1,7.05,0,4.75,4.75,0,0,1,2.24,1.65,4.4,4.4,0,0,1,.77,2.61v1.86a4.43,4.43,0,0,1-.77,2.62,4.76,4.76,0,0,1-2.24,1.66,11.18,11.18,0,0,1-7.05,0Zm6.05-2.25a2.46,2.46,0,0,0,.9-2v-1.86a2.42,2.42,0,0,0-.9-2,3.9,3.9,0,0,0-2.52-.72,4,4,0,0,0-2.53.72,2.44,2.44,0,0,0-.89,2v1.86a2.48,2.48,0,0,0,.89,2,3.89,3.89,0,0,0,2.53.73A3.84,3.84,0,0,0,4568,8898.66Z" transform="translate(-4410.45 -8670.12)"/><path class="cls-1" d="M4576.42,8890.1h3.12v11.22h-3.12Zm7.68,2.12a5.25,5.25,0,0,0-1.45-.19,4,4,0,0,0-2.3.58,1.87,1.87,0,0,0-.81,1.61l-.32-2.16a4.93,4.93,0,0,1,1.89-1.57,5.85,5.85,0,0,1,2.56-.55,7.89,7.89,0,0,1,2,.22,5,5,0,0,1,1.54.65l-2,2A2.7,2.7,0,0,0,4584.1,8892.22Z" transform="translate(-4410.45 -8670.12)"/><path class="cls-1" d="M4589.76,8890.1h3.11v11.22h-3.11Zm9.46,4.42a2.22,2.22,0,0,0-.82-1.84,3.72,3.72,0,0,0-2.34-.65,4.15,4.15,0,0,0-2.36.58,1.85,1.85,0,0,0-.83,1.61l-.32-2.16a4.85,4.85,0,0,1,1.92-1.57,6.07,6.07,0,0,1,2.61-.55,6.92,6.92,0,0,1,2.84.53,4,4,0,0,1,1.8,1.56,4.78,4.78,0,0,1,.61,2.48v6.81h-3.11Zm9.46,0a2.17,2.17,0,0,0-.87-1.84,4,4,0,0,0-2.44-.65,3.51,3.51,0,0,0-2.24.63,2.14,2.14,0,0,0-.8,1.78l-.62-2.17a5.05,5.05,0,0,1,2-1.72,6,6,0,0,1,2.71-.61,7.29,7.29,0,0,1,2.92.53,4,4,0,0,1,1.85,1.56,4.69,4.69,0,0,1,.63,2.48v6.81h-3.11Z" transform="translate(-4410.45 -8670.12)"/><path class="cls-1" d="M4617.21,8900.62a2.82,2.82,0,0,1-1.45-2.61,2.73,2.73,0,0,1,1.33-2.49,7.61,7.61,0,0,1,4-.84h4.5l.22,1.78h-4.7a3.44,3.44,0,0,0-1.83.38,1.3,1.3,0,0,0-.6,1.17,1.36,1.36,0,0,0,.8,1.27,5.65,5.65,0,0,0,2.44.41,9.73,9.73,0,0,0,2.66-.27c.58-.18.88-.46.88-.84l.32,1.57a3.22,3.22,0,0,1-1,.75,5.4,5.4,0,0,1-1.39.44,9.78,9.78,0,0,1-1.79.14A8.73,8.73,0,0,1,4617.21,8900.62Zm8.26-6.41a2,2,0,0,0-.84-1.72,4,4,0,0,0-2.35-.61,8.29,8.29,0,0,0-1.86.21,7.08,7.08,0,0,0-1.61.57l-2.27-1.1a6.43,6.43,0,0,1,2.37-1.2,11.91,11.91,0,0,1,3.28-.42,10.2,10.2,0,0,1,3.37.49,4.47,4.47,0,0,1,2.13,1.43,3.52,3.52,0,0,1,.74,2.25v7.21h-3Z" transform="translate(-4410.45 -8670.12)"/><path class="cls-1" d="M4631.94,8890.1h7.14v2h-7.14Zm2.52,10.52a2.75,2.75,0,0,1-.89-2.22v-11.56h3.11v11.58a.86.86,0,0,0,.23.64,1,1,0,0,0,.67.22h1.5v2.1h-1.8A4.3,4.3,0,0,1,4634.46,8900.62Z" transform="translate(-4410.45 -8670.12)"/><path class="cls-1" d="M4643.35,8885.6h3.11v2.21h-3.11Zm0,4.5h3.11v11.22h-3.11Z" transform="translate(-4410.45 -8670.12)"/><path class="cls-1" d="M4653.74,8900.91a4.7,4.7,0,0,1-2.23-1.67,4.43,4.43,0,0,1-.77-2.64v-1.83a4.33,4.33,0,0,1,.77-2.61,4.67,4.67,0,0,1,2.23-1.65,11.18,11.18,0,0,1,7.05,0,4.75,4.75,0,0,1,2.24,1.65,4.4,4.4,0,0,1,.77,2.61v1.86a4.43,4.43,0,0,1-.77,2.62,4.76,4.76,0,0,1-2.24,1.66,11.18,11.18,0,0,1-7.05,0Zm6.05-2.25a2.45,2.45,0,0,0,.89-2v-1.86a2.42,2.42,0,0,0-.89-2,4.79,4.79,0,0,0-5.05,0,2.44,2.44,0,0,0-.89,2v1.86a2.48,2.48,0,0,0,.89,2,4.73,4.73,0,0,0,5.05,0Z" transform="translate(-4410.45 -8670.12)"/><path class="cls-1" d="M4668.22,8890.1h3.11v11.22h-3.11Zm9.61,4.42a2.19,2.19,0,0,0-.86-1.84,4.06,4.06,0,0,0-2.45-.65,4.12,4.12,0,0,0-2.35.58,1.84,1.84,0,0,0-.84,1.61l-.32-2.16a4.85,4.85,0,0,1,1.92-1.57,7,7,0,0,1,6.61.64,4.2,4.2,0,0,1,1.41,3.38v6.81h-3.12Z" transform="translate(-4410.45 -8670.12)"/><path class="cls-1" d="M4694.07,8890.1h3.11v11.22h-3.11Zm7.68,2.12a5.25,5.25,0,0,0-1.45-.19,4,4,0,0,0-2.3.58,1.88,1.88,0,0,0-.82,1.61l-.32-2.16a5,5,0,0,1,1.9-1.57,5.82,5.82,0,0,1,2.56-.55,7.94,7.94,0,0,1,2,.22,4.94,4.94,0,0,1,1.53.65l-2,2A2.66,2.66,0,0,0,4701.75,8892.22Z" transform="translate(-4410.45 -8670.12)"/><path class="cls-1" d="M4711.39,8901.48l-1.56-.58a5,5,0,0,1-2.37-1.71,4.6,4.6,0,0,1-.82-2.73v-1.27a5,5,0,0,1,.79-2.84,4.83,4.83,0,0,1,2.28-1.8,9.48,9.48,0,0,1,3.6-.61,7.51,7.51,0,0,1,3.39.7,4.89,4.89,0,0,1,2.14,2,6.4,6.4,0,0,1,.74,3.19v.74H4708.9v-1.78h7.72a3.12,3.12,0,0,0-1-2.13,3.33,3.33,0,0,0-2.31-.76,4.11,4.11,0,0,0-2.74.82,2.9,2.9,0,0,0-1,2.32v1.43a2.48,2.48,0,0,0,1,2.14,5,5,0,0,0,2.95.75,6.66,6.66,0,0,0,1.87-.27,6.22,6.22,0,0,0,1.67-.76l2,1.45a9.72,9.72,0,0,1-2.64,1.24,10.26,10.26,0,0,1-2.94.43Z" transform="translate(-4410.45 -8670.12)"/><path class="cls-1" d="M4724.54,8900.62a2.84,2.84,0,0,1-1.45-2.61,2.75,2.75,0,0,1,1.33-2.49,7.63,7.63,0,0,1,4-.84h4.51l.21,1.78h-4.7a3.4,3.4,0,0,0-1.82.38,1.29,1.29,0,0,0-.61,1.17,1.36,1.36,0,0,0,.8,1.27,5.65,5.65,0,0,0,2.44.41,9.68,9.68,0,0,0,2.66-.27c.59-.18.88-.46.88-.84l.32,1.57a3.11,3.11,0,0,1-1,.75,5.28,5.28,0,0,1-1.39.44,9.78,9.78,0,0,1-1.79.14A8.73,8.73,0,0,1,4724.54,8900.62Zm8.26-6.41a2,2,0,0,0-.83-1.72,4,4,0,0,0-2.36-.61,8.14,8.14,0,0,0-1.85.21,6.75,6.75,0,0,0-1.61.57l-2.28-1.1a6.43,6.43,0,0,1,2.37-1.2,12,12,0,0,1,3.28-.42,10.2,10.2,0,0,1,3.37.49,4.5,4.5,0,0,1,2.14,1.43,3.57,3.57,0,0,1,.73,2.25v7.21h-3Z" transform="translate(-4410.45 -8670.12)"/><path class="cls-1" d="M4743.6,8898.42a.83.83,0,0,0,.25.64,1.09,1.09,0,0,0,.71.22H4746v2.1h-1.83a4.26,4.26,0,0,1-2.74-.78,2.65,2.65,0,0,1-1-2.2v-12.8h3.11Z" transform="translate(-4410.45 -8670.12)"/><path class="cls-1" d="M4749.54,8885.6h3.11v2.21h-3.11Zm0,4.5h3.11v11.22h-3.11Z" transform="translate(-4410.45 -8670.12)"/><path class="cls-1" d="M4756.16,8890.1h7.14v2h-7.14Zm2.53,10.52a2.72,2.72,0,0,1-.9-2.22v-11.56h3.12v11.58a.86.86,0,0,0,.22.64,1,1,0,0,0,.68.22h1.49v2.1h-1.8A4.25,4.25,0,0,1,4758.69,8900.62Z" transform="translate(-4410.45 -8670.12)"/><path class="cls-1" d="M4765.89,8890.1h3.18l4.87,9.75-1.73,2.39Zm14,0-6.75,13.85a3.19,3.19,0,0,1-1,1.22,3.83,3.83,0,0,1-1.46.64,10,10,0,0,1-2.14.19H4768v-2.12h.62a3.29,3.29,0,0,0,1.38-.24,2.21,2.21,0,0,0,.89-.86l5.86-12.68Z" transform="translate(-4410.45 -8670.12)"/></svg>